<svg xmlns="http://www.w3.org/2000/svg" width="101.6mm" height="101.6mm" viewBox="0 0 288 288"><title>fbicon</title><path d="M388.814,0a35.2033,35.2033,0,0,1,35.1866,35.1866V252.8134A35.2036,35.2036,0,0,1,388.814,288H328.9257V179.4853h37.4626l7.1279-46.4743H328.9257v-30.16c0-12.7141,6.2286-25.1077,26.2013-25.1077h20.2736V38.1774a247.273,247.273,0,0,0-35.99-3.14c-36.7245,0-60.7275,22.2575-60.7275,62.5522V133.011H237.8609v46.4743h40.8224V288H171.1873a35.2037,35.2037,0,0,1-35.1867-35.1866V35.1866A35.2033,35.2033,0,0,1,171.1873,0Z" transform="translate(-136.0006 0)" fill="#40e0d0" fill-rule="evenodd"/></svg>