<svg xmlns="http://www.w3.org/2000/svg" width="101.6mm" height="101.6mm" viewBox="0 0 288 288"><title>instaicon</title><path d="M388.814,0a35.2033,35.2033,0,0,1,35.1866,35.1866V252.8134A35.2036,35.2036,0,0,1,388.814,288H171.1873a35.2037,35.2037,0,0,1-35.1867-35.1866V35.1866A35.2033,35.2033,0,0,1,171.1873,0ZM280.0006,45.5625c-26.7339,0-30.0864.1131-40.5855.5923-10.4777.4781-17.6332,2.142-23.895,4.576A50.3343,50.3343,0,0,0,186.7308,79.52c-2.4334,6.2618-4.0972,13.4173-4.5759,23.895-.4787,10.4991-.5918,13.8516-.5918,40.5855s.1131,30.0864.5918,40.5855c.4787,10.4777,2.1425,17.6333,4.5759,23.895A50.3368,50.3368,0,0,0,215.52,237.27c6.2618,2.4334,13.4173,4.0973,23.895,4.5754,10.4991.4792,13.8516.5923,40.5855.5923s30.0865-.113,40.5855-.5923c10.4777-.4781,17.6333-2.142,23.8951-4.5754a50.3368,50.3368,0,0,0,28.7893-28.7893c2.4333-6.2617,4.0972-13.4173,4.5753-23.895.4793-10.4991.5924-13.8516.5924-40.5855s-.1131-30.0864-.5924-40.5855c-.4781-10.4777-2.142-17.6332-4.5753-23.895a50.3341,50.3341,0,0,0-28.7893-28.7888c-6.2618-2.4339-13.4174-4.0978-23.8951-4.5759C310.0871,45.6756,306.7346,45.5625,280.0006,45.5625Zm0,17.7367c26.284,0,29.3974.1,39.7772.5738,9.5974.4382,14.81,2.0419,18.2785,3.3891a32.5994,32.5994,0,0,1,18.6823,18.6823c1.3477,3.4689,2.9514,8.681,3.389,18.2784.4737,10.38.5744,13.4933.5744,39.7772s-.1007,29.3974-.5744,39.7772c-.4376,9.5973-2.0413,14.81-3.389,18.2784a32.6,32.6,0,0,1-18.6823,18.6823c-3.469,1.3478-8.6811,2.9515-18.2785,3.3891-10.3781.4736-13.4915.5743-39.7772.5743s-29.3985-.1007-39.7771-.5743c-9.5974-.4377-14.81-2.0413-18.2785-3.3891a32.6,32.6,0,0,1-18.6823-18.6823c-1.3477-3.4689-2.9514-8.6811-3.39-18.2784-.4736-10.38-.5738-13.4933-.5738-39.7772s.1-29.3974.5738-39.7772c.4382-9.5974,2.0419-14.8095,3.39-18.2784A32.5994,32.5994,0,0,1,221.945,67.2621c3.469-1.3472,8.6811-2.9509,18.2785-3.3891C250.6033,63.3994,253.7167,63.2992,280.0006,63.2992Zm0,30.1517A50.5491,50.5491,0,1,0,330.55,144,50.5491,50.5491,0,0,0,280.0006,93.4509Zm0,83.3614A32.8123,32.8123,0,1,1,312.813,144,32.8119,32.8119,0,0,1,280.0006,176.8123ZM344.36,91.4541a11.8125,11.8125,0,1,1-11.813-11.8125A11.8124,11.8124,0,0,1,344.36,91.4541Z" transform="translate(-136.0006 0)" fill="#40e0d0" fill-rule="evenodd"/></svg>