<svg xmlns="http://www.w3.org/2000/svg" width="101.6mm" height="101.6mm" viewBox="0 0 288 288"><title>linkdinicon</title><path d="M388.814,0a35.2033,35.2033,0,0,1,35.1866,35.1866V252.8134A35.2036,35.2036,0,0,1,388.814,288H171.1873a35.2037,35.2037,0,0,1-35.1867-35.1866V35.1866A35.2033,35.2033,0,0,1,171.1873,0ZM226.26,238.0939V111.1281H184.05V238.0939Zm152.1782,0V165.2844c0-39-20.8227-57.1421-48.5894-57.1421-22.39,0-32.4191,12.3137-38.0345,20.9621V111.1281H249.615c.56,11.9143,0,126.9658,0,126.9658h42.1987V167.1874c0-3.7958.2734-7.5893,1.3916-10.3022,3.0454-7.58,9.994-15.4316,21.6529-15.4316,15.2634,0,21.3789,11.6476,21.3789,28.7083v67.932h42.2011ZM205.44,49.9061c-14.4417,0-23.877,9.4945-23.877,21.9387,0,12.1826,9.1485,21.9386,23.3184,21.9386h.2722c14.7179,0,23.8793-9.756,23.8793-21.9386C228.76,59.418,219.8975,49.9331,205.44,49.9061Z" transform="translate(-136.0006 0)" fill="#40e0d0" fill-rule="evenodd"/></svg>